# xmcd
#
# Track frame offsets:
#        150
#        19703
#        36565
#        56124
#        71882
#        90164
#        105172
#        120959
#        135031
#        156135
#        175688
#        192550
#        212109
#        227867
#        246149
#        261157
#        276944
#        291016
#
# Disc length: 4161 seconds
#
# Revision: 0
# Processed by: cddbd v1.5.2PL0 Copyright (c) Steve Scherf et al.
# Submitted via: CDGFix 3.8c
#
DISCID=f9103f12
DTITLE=Various Artist - PHMC0712
DYEAR=1900
DGENRE=Karaoke
TTITLE0=Martina McBride - For These Times
TTITLE1=Tim McGraw - Let it Go
TTITLE2=Tim McGraw - Comin' Home
TTITLE3=Taylor Swift - Our Song
TTITLE4=Chuck Wilson - Stealing Cinderella
TTITLE5=Bucky Covington - It's Good to Be Us
TTITLE6=Miranda Lambert - More Like Her
TTITLE7=Chris Cagle - What Kinda Gone
TTITLE8=Brad Paisley - Letter To Me
TTITLE9=Martina McBride - For These Times (Vocals)
TTITLE10=Tim McGraw - Let It Go (Vocals)
TTITLE11=Tim McGraw - Comin' Home (Vocals)
TTITLE12=Taylor Swift - Our Song (Vocals)
TTITLE13=Chuck Wilson - Stealling Cinderella (Vocals)
TTITLE14=Bucky Covington - It's Good To Be Us (Vocals)
TTITLE15=Miranda Lambert - More Like Her (Vocals)
TTITLE16=Chris Cagle - What Kinda Gone (Vocals)
TTITLE17=Brad Paisley - Letter To Me (Vocals)
EXTD=
EXTT0=
EXTT1=
EXTT2=
EXTT3=
EXTT4=
EXTT5=
EXTT6=
EXTT7=
EXTT8=
EXTT9=
EXTT10=
EXTT11=
EXTT12=
EXTT13=
EXTT14=
EXTT15=
EXTT16=
EXTT17=
PLAYORDER=
